<svg width="1966" height="980" viewBox="0 0 1966 980"
xmlns="http://www.w3.org/2000/svg">

<defs>

<linearGradient id="bg" x1="0%" y1="0%" x2="100%" y2="100%">
<stop offset="0%" stop-color="#081B43"/>
<stop offset="100%" stop-color="#04112B"/>
</linearGradient>

<linearGradient id="panel" x1="0%" y1="0%" x2="100%" y2="100%">
<stop offset="0%" stop-color="#0D275A"/>
<stop offset="100%" stop-color="#071A3F"/>
</linearGradient>

<filter id="shadow">
<feDropShadow dx="0" dy="8" stdDeviation="10"
flood-color="#000000" flood-opacity="0.35"/>
</filter>

</defs>

<!-- Fondo -->

<rect
width="1966"
height="980"
rx="20"
fill="url(#bg)"/>

<!-- Panel izquierdo -->

<rect
x="35"
y="120"
width="1040"
height="500"
rx="18"
fill="url(#panel)"
stroke="#2C6DFF"
stroke-opacity=".35"
filter="url(#shadow)"/>

<!-- Panel derecho -->

<rect
x="1100"
y="120"
width="830"
height="500"
rx="18"
fill="url(#panel)"
stroke="#2C6DFF"
stroke-opacity=".35"
filter="url(#shadow)"/>

<!-- Panel Timeline -->

<rect
x="35"
y="650"
width="1895"
height="290"
rx="18"
fill="url(#panel)"
stroke="#2C6DFF"
stroke-opacity=".35"
filter="url(#shadow)"/>

<!-- ========================= -->
<!-- ENCABEZADO -->
<!-- ========================= -->

<!-- Barra roja -->
<rect x="48" y="42" width="8" height="58" rx="4" fill="#ff2b2b"/>

<!-- Emoji -->
<text
x="70"
y="88"
font-family="Segoe UI Emoji, Apple Color Emoji, Noto Color Emoji"
font-size="56">
👋
</text>

<!-- Título -->
<text
x="135"
y="92"
font-family="Arial Black, Arial, sans-serif"
font-size="62"
font-weight="900"
fill="white"
letter-spacing="2">
SOBRE MÍ
</text>

<!-- Línea azul superior -->
<line
x1="35"
y1="110"
x2="1930"
y2="110"
stroke="#245BFF"
stroke-opacity=".25"/>

<!-- Patrón de puntos -->
<g fill="#2d6cff" opacity=".75">

<circle cx="1660" cy="45" r="3"/>
<circle cx="1685" cy="45" r="3"/>
<circle cx="1710" cy="45" r="3"/>
<circle cx="1735" cy="45" r="3"/>
<circle cx="1760" cy="45" r="3"/>
<circle cx="1785" cy="45" r="3"/>
<circle cx="1810" cy="45" r="3"/>
<circle cx="1835" cy="45" r="3"/>
<circle cx="1860" cy="45" r="3"/>

<circle cx="1660" cy="70" r="3"/>
<circle cx="1685" cy="70" r="3"/>
<circle cx="1710" cy="70" r="3"/>
<circle cx="1735" cy="70" r="3"/>
<circle cx="1760" cy="70" r="3"/>
<circle cx="1785" cy="70" r="3"/>
<circle cx="1810" cy="70" r="3"/>
<circle cx="1835" cy="70" r="3"/>
<circle cx="1860" cy="70" r="3"/>

<circle cx="1660" cy="95" r="3"/>
<circle cx="1685" cy="95" r="3"/>
<circle cx="1710" cy="95" r="3"/>
<circle cx="1735" cy="95" r="3"/>
<circle cx="1760" cy="95" r="3"/>
<circle cx="1785" cy="95" r="3"/>
<circle cx="1810" cy="95" r="3"/>
<circle cx="1835" cy="95" r="3"/>
<circle cx="1860" cy="95" r="3"/>

</g>  
</svg>
